# xmcd
#
# Track frame offsets:
#	150
#	10226
#	36569
#	58733
#	85947
#	109974
#	130838
#	147793
#	184497
#	215551
#
# Disc length: 3118 seconds
#
# Revision: 1
# Processed by: cddbd v1.5.2PL0 Copyright (c) Steve Scherf et al.
# Submitted via: audiograbber 1.83.01
#
DISCID=970c2c0a
DTITLE=Stéphane GUILLAUME - Soul Role
DYEAR=2004
DGENRE=Jazz
TTITLE0=Urban trek
TTITLE1=Sur le tarmac
TTITLE2=À ciel ouvert
TTITLE3=Maître Nhôm
TTITLE4=Les sources de la Romanche
TTITLE5=Formica Léo
TTITLE6=Soul role
TTITLE7=Piana
TTITLE8=Charivari
TTITLE9=Rascar Capac ( intro. )
EXTD=YEAR: 2004
EXTT0=
EXTT1=
EXTT2=
EXTT3=
EXTT4=
EXTT5=
EXTT6=
EXTT7=
EXTT8=
EXTT9=
PLAYORDER=
